<?xml version="1.0" encoding="utf-8" ?>
<svg baseProfile="full" height="294.20971542596817" version="1.1" width="1756.270998865366" xmlns="http://www.w3.org/2000/svg" xmlns:ev="http://www.w3.org/2001/xml-events" xmlns:xlink="http://www.w3.org/1999/xlink"><defs /><rect fill="white" height="294.20971542596817" width="1756.270998865366" x="0" y="0" /><path d="M25,106.33357047569007 m0.0,-1.4428678154945374 l10.214484930038452,-3.777959942817688 1.5104298293590546,-3.777959942817688 l2.818080186843872,-3.777959942817688 7.285877466201782,-3.777959942817688 l10.214484930038452,-3.777959942817688 10.214484930038452,-3.2416358590126038 l10.214484930038452,-2.013370096683502 10.214484930038452,-1.1282549798488617 l10.214484930038452,0.2661220543086529 7.908172607421875,3.0770158767700195 l9.166529178619385,5.177204608917236 10.214484930038452,5.177204608917236 l10.008742809295654,5.177204608917236 10.214484930038452,5.177204608917236 l9.24463152885437,4.616911709308624 10.214484930038452,5.177204608917236 l10.214484930038452,5.177204608917236 10.214484930038452,5.177204608917236 l10.214484930038452,5.177204608917236 10.214484930038452,5.177204608917236 l10.214484930038452,5.177204608917236 10.214484930038452,5.177204608917236 l10.214484930038452,5.177204608917236 10.214484930038452,5.177204608917236 l10.214484930038452,5.177204608917236 10.214484930038452,1.8292245268821716 l10.214484930038452,5.177204608917236 4.594773054122925,-0.3396189585328102 l10.214484930038452,4.251006543636322 4.517306089401245,-0.660223662853241 l10.214484930038452,3.4703803062438965 3.1674957275390625,-1.1948107928037643 l10.214484930038452,1.73314169049263 2.431199848651886,-1.5400820970535278 l9.509883522987366,0.5200545489788055 10.214484930038452,5.177204608917236 l1.2672162055969238,-0.359136164188385 10.214484930038452,0.2416183054447174 l10.214484930038452,4.4611164927482605 4.585852026939392,-0.3760133683681488 l10.214484930038452,4.164122045040131 1.696191430091858,-0.634726881980896 l10.214484930038452,-0.12521974742412567 10.214484930038452,3.6710333824157715 l2.561134397983551,-0.6655235588550568 10.214484930038452,3.4676480293273926 l5.621151328086853,-0.7974772155284882 10.214484930038452,-0.5370458215475082 l10.214484930038452,4.730153679847717 3.1386160850524902,-0.06242130417376757 l10.214484930038452,4.74524587392807 3.3401504158973694,-0.17837835475802422 l10.214484930038452,4.402296841144562 1.7936095595359802,-0.5679025873541832 l10.214484930038452,0.3947799652814865 10.214484930038452,4.439613521099091 l1.6749098896980286,-0.6314881145954132 10.214484930038452,-3.5864323377609253 l10.214484930038452,0.7175403088331223 4.640669524669647,-1.2476605921983719 l10.214484930038452,3.446080982685089 5.213109254837036,-0.21178796887397766 l2.098727822303772,-1.389612853527069 9.446893334388733,1.6743865609169006 l2.405215948820114,-1.1927126348018646 10.04598617553711,2.926192283630371 l2.277558743953705,-0.7096347957849503 10.214484930038452,3.2998445630073547 l2.3330509662628174,-0.6115688756108284 10.214484930038452,3.30284982919693 l4.297850728034973,-0.6078812852501869 10.214484930038452,4.118298590183258 l1.7680607736110687,-0.5562258139252663 10.214484930038452,-0.3815716505050659 l10.214484930038452,4.260475933551788 2.2139598429203033,-0.48307694494724274 l10.214484930038452,4.0177121758461 4.51239675283432,-0.4963725432753563 l10.214484930038452,4.352138042449951 3.455149829387665,-0.5011168122291565 l10.214484930038452,4.055381417274475 0.665728747844696,-0.6421549618244171 l10.214484930038452,-0.2711717039346695 10.214484930038452,4.138550162315369 l4.498341381549835,-0.7122785598039627 10.214484930038452,4.035077393054962 l2.6164934039115906,-0.5444687604904175 10.214484930038452,4.069008231163025 l2.939160466194153,-0.697101429104805 10.214484930038452,3.909592628479004 l4.730497598648071,-0.5072062462568283 10.214484930038452,-0.8469203859567642 l10.214484930038452,4.33393657207489 3.7944993376731873,-0.1620778813958168 l10.214484930038452,5.177204608917236 3.8504397869110107,-0.060878926888108253 l2.540496587753296,-2.1080929040908813 8.907663822174072,-1.1353488266468048 l10.214484930038452,2.3221921920776367 3.748619854450226,-0.8146112412214279 l10.214484930038452,4.0059152245521545 0.4923182725906372,-0.0718182884156704 l10.214484930038452,2.9671385884284973 5.154491066932678,-0.7398771494626999 l10.214484930038452,-0.7492674887180328 10.214484930038452,4.569687843322754 l4.8363566398620605,-0.008502928540110588 4.14472222328186,-1.4792229235172272 l10.214484930038452,-2.339983284473419 10.214484930038452,-2.352016419172287 l10.214484930038452,-2.251746654510498 10.214484930038452,-1.9902822375297546 l10.214484930038452,-1.9542711973190308 10.214484930038452,-1.69073686003685 l10.214484930038452,-1.688738763332367 10.214484930038452,-1.8186381459236145 l10.214484930038452,-1.7605245113372803 10.214484930038452,-1.5566244721412659 l10.214484930038452,-1.4039483666419983 10.214484930038452,-0.8011707663536072 l10.029196739196777,2.5582069158554077 9.61715281009674,4.485592842102051 l2.1186229586601257,1.5520195662975311 9.812041521072388,5.177204608917236 l3.1564873456954956,0.8767828345298767 10.214484930038452,5.177204608917236 l1.9842025637626648,0.42717453092336655 10.214484930038452,5.177204608917236 l2.6520681381225586,0.0831954088062048 10.214484930038452,4.866930246353149 l0.7594697177410126,-0.6273399293422699 10.214484930038452,-2.4007482826709747 l10.214484930038452,-3.1322482228279114 10.214484930038452,-2.9734331369400024 l10.214484930038452,-2.563284933567047 10.214484930038452,-2.991010546684265 l10.214484930038452,-3.676849603652954 10.214484930038452,-3.2053425908088684 l10.214484930038452,-3.042494058609009 10.214484930038452,-3.4515830874443054 l10.214484930038452,-3.5096123814582825 10.214484930038452,-3.777959942817688 l10.214484930038452,-3.777959942817688 10.214484930038452,-3.777959942817688 l10.214484930038452,-3.777959942817688 10.214484930038452,-3.7737813591957092 l10.214484930038452,-3.40839684009552 10.214484930038452,-3.582065999507904 l10.214484930038452,-3.382605016231537 10.214484930038452,-3.651588559150696 l10.214484930038452,-3.684535324573517 10.214484930038452,-3.777959942817688 l10.214484930038452,-3.777959942817688 10.214484930038452,-3.6337313055992126 l10.214484930038452,-3.544357419013977 10.214484930038452,-3.6127400398254395 l10.214484930038452,-3.6589565873146057 10.214484930038452,-3.279324769973755 l10.214484930038452,-3.019484281539917 10.214484930038452,-2.943830192089081 l10.214484930038452,-3.1508085131645203 10.214484930038452,-3.1848007440567017 l10.214484930038452,-2.9773762822151184 10.214484930038452,-3.461066782474518 l10.214484930038452,-3.6894771456718445 10.214484930038452,-3.777959942817688 l10.214484930038452,-3.777959942817688 10.214484930038452,-3.6564037203788757 l10.214484930038452,-3.777959942817688 10.214484930038452,-3.777959942817688 l10.214484930038452,-3.777959942817688 10.214484930038452,-3.777959942817688 l10.214484930038452,-3.777959942817688 10.214484930038452,-3.777959942817688 l10.214484930038452,-3.777959942817688 10.214484930038452,-3.777959942817688 l10.214484930038452,-3.777959942817688 10.214484930038452,-3.777959942817688 l10.214484930038452,-3.777959942817688 10.214484930038452,-3.777959942817688 l10.214484930038452,-3.777959942817688 10.214484930038452,-3.777959942817688 l10.214484930038452,-3.777959942817688 10.214484930038452,-3.777959942817688 l10.214484930038452,-3.777959942817688 10.214484930038452,-3.777959942817688 l10.214484930038452,-3.777959942817688 10.214484930038452,-3.777959942817688 l10.214484930038452,-3.777959942817688 10.214484930038452,-3.777959942817688 l10.214484930038452,-3.777959942817688 10.214484930038452,-3.777959942817688 l10.214484930038452,-3.777959942817688 10.214484930038452,-3.777959942817688 l10.214484930038452,-3.777959942817688 10.214484930038452,-3.777959942817688 l10.214484930038452,-3.777959942817688 10.214484930038452,-3.777959942817688 l10.214484930038452,-3.777959942817688 " fill="none" stroke="black" stroke-width="1" /></svg>