<?xml version="1.0" encoding="utf-8" ?>
<svg baseProfile="full" height="149.62620431030646" version="1.1" width="99.92504171055808" xmlns="http://www.w3.org/2000/svg" xmlns:ev="http://www.w3.org/2001/xml-events" xmlns:xlink="http://www.w3.org/1999/xlink"><defs /><rect fill="white" height="149.62620431030646" width="99.92504171055808" x="0" y="0" /><path d="M52.98488885120969,119.70086387249356 m-1.1193955540483873,0.0 l-2.014911997287097,-2.2387911080967746 -7.388010656719357,-13.880504870200003 l-1.5671537756677423,-4.925340437812904 0.0,-31.119196402545168 l2.2387911080967746,-7.835768878338711 2.6865493297161294,-2.9104284405258065 l11.193955540483872,-8.059647989148388 4.925340437812904,-1.3432746648580647 l9.62680176481613,0.22387911080967746 2.2387911080967746,2.2387911080967746 l1.1193955540483873,3.1343075513354846 0.0,13.880504870200003 l-6.268615102670969,22.164031970158067 -1.3432746648580647,2.462670218906452 l-0.8955164432387098,13.880504870200003 -0.8955164432387098,3.805944883764517 l-6.044735991861292,13.432746648580649 -2.2387911080967746,2.014911997287097 l0.0,-2.6865493297161294 m-14.776021313438713,-46.11909682679355 l3.5820657729548393,-1.5671537756677423 10.074559986435485,-1.1193955540483873 l7.835768878338711,-2.2387911080967746 6.9402524351000014,-0.6716373324290323 m-25.298339521493553,23.955064856635488 l1.7910328864774197,0.6716373324290323 9.179043543196777,0.0 l9.402922654006453,-2.6865493297161294 m-15.8954168674871,-39.402723502503235 l-7.388010656719357,-5.596977770241936 -0.8955164432387098,-1.5671537756677423 l-0.4477582216193549,-17.46257064315484 1.3432746648580647,-0.6716373324290323 l1.5671537756677423,0.8955164432387098 2.014911997287097,2.014911997287097 l2.6865493297161294,1.3432746648580647 2.9104284405258065,3.805944883764517 l1.3432746648580647,0.4477582216193549 1.5671537756677423,-3.5820657729548393 l2.2387911080967746,-13.432746648580649 1.3432746648580647,0.0 l1.5671537756677423,14.328263091819357 0.22387911080967746,1.1193955540483873 l1.1193955540483873,0.22387911080967746 4.029823994574194,-8.059647989148388 l2.6865493297161294,-2.462670218906452 5.373098659432259,-2.014911997287097 l6.492494213480646,-0.6716373324290323 -0.6716373324290323,4.477582216193549 l-2.9104284405258065,6.492494213480646 -9.402922654006453,14.328263091819357 " fill="none" stroke="black" stroke-width="1" /></svg>