<?xml version="1.0" encoding="utf-8" ?>
<svg baseProfile="full" height="319.3529359251261" version="1.1" width="50.883996337652206" xmlns="http://www.w3.org/2000/svg" xmlns:ev="http://www.w3.org/2001/xml-events" xmlns:xlink="http://www.w3.org/1999/xlink"><defs /><rect fill="white" height="319.3529359251261" width="50.883996337652206" x="0" y="0" /><path d="M25,294.3529359251261 m0.0,-3.409309685230255 l0.0,-3.777959942817688 0.0,-3.238561749458313 l0.0,-1.5851107239723206 0.0,-0.2638312429189682 l0.8839963376522064,3.21211040019989 0.0,-3.777959942817688 l0.0,-1.2601833045482635 0.0,2.3169752955436707 l0.0,-3.777959942817688 0.0,-1.6580694913864136 l0.0,-1.4285388588905334 0.0,-0.7974943518638611 l0.0,-0.21369792520999908 0.0,0.32907038927078247 l0.0,-3.777959942817688 0.0,-0.34017130732536316 l0.0,1.8746888637542725 0.0,-3.777959942817688 l0.0,-1.372426599264145 0.0,-0.5850949883460999 l0.0,-0.30621297657489777 0.0,0.05248839035630226 l0.0,-3.777959942817688 0.0,-1.0313807427883148 l0.0,0.3308674693107605 0.0,-3.777959942817688 l0.0,-0.7314098626375198 0.0,0.9022887051105499 l0.0,-3.5154134035110474 0.0,-1.0505607724189758 l0.0,-0.6406500190496445 0.0,-0.4529430717229843 l0.0,0.5505340173840523 0.0,-3.412056267261505 l0.0,-1.3313527405261993 0.0,0.42255111038684845 l0.0,-3.777959942817688 0.0,-1.4674633741378784 l0.0,0.49110524356365204 0.0,-3.777959942817688 l0.0,-1.1850681155920029 0.0,0.3314472362399101 l0.0,-3.4148001670837402 0.0,-1.5687255561351776 l0.0,-1.2048881500959396 0.0,0.30701298266649246 l0.0,-3.4005483984947205 0.0,-1.831352412700653 l0.0,-1.0088040679693222 0.0,0.43535351753234863 l0.0,-2.6865774393081665 0.0,-1.2606355547904968 l0.0,0.5583044141530991 0.0,-3.1631293892860413 l0.0,-1.6123567521572113 0.0,-1.2730984389781952 l0.0,0.49787312746047974 0.0,-2.7937856316566467 l0.0,-1.2184445559978485 0.0,0.5610070377588272 l0.0,-3.078518509864807 0.0,-0.9317540377378464 l0.0,0.58665432035923 0.0,-3.2120168209075928 l0.0,-1.786663830280304 0.0,-1.2006837129592896 l0.0,0.38842611014842987 0.0,-2.893425226211548 l0.0,-1.0947182774543762 0.0,0.4558993875980377 l0.0,-3.5181570053100586 0.0,-1.4799576997756958 l0.0,0.360218808054924 0.0,-3.009638488292694 l0.0,-1.4561155438423157 0.0,0.42962372303009033 l0.0,-3.543296456336975 0.0,-1.0261936485767365 l0.0,0.5076342821121216 0.0,-2.926579713821411 l0.0,-1.349874883890152 0.0,1.4529186487197876 l0.0,-3.0792611837387085 0.0,-1.3727518916130066 l0.0,1.0371709614992142 0.0,-3.3536556363105774 l0.0,-1.2737151980400085 0.0,-0.8882274478673935 l0.0,0.6028038263320923 0.0,-3.2380595803260803 l0.0,-1.533849686384201 0.0,-0.7846793532371521 l0.0,0.5803851410746574 0.0,-3.2766881585121155 l0.0,-1.6434778273105621 0.0,0.22584021091461182 l0.0,-3.4473681449890137 0.0,-0.8198089152574539 l0.0,0.5501749366521835 0.0,-3.524807095527649 l0.0,-1.3386864960193634 0.0,0.47508709132671356 l0.0,-3.774263560771942 0.0,-1.9175021350383759 l0.0,-0.826568529009819 0.0,0.40593385696411133 l0.0,-3.206820487976074 0.0,-1.0249939560890198 l0.0,0.4235398396849632 0.0,-3.428211808204651 l0.0,-1.6716572642326355 0.0,-1.0868112742900848 l0.0,0.4434560611844063 0.0,-3.008171021938324 l0.0,-1.1495700478553772 0.0,0.6356999278068542 l0.0,-3.7091809511184692 0.0,-0.8896396309137344 l0.0,0.44107586145401 0.0,-3.633296489715576 l0.0,-1.001133769750595 0.0,0.6481228023767471 l0.0,-3.4728744626045227 0.0,-1.6400034725666046 l0.0,-1.1105318367481232 0.0,0.5551548674702644 l0.0,-3.452061116695404 0.0,-2.061777412891388 l0.0,-1.4232897758483887 0.0,0.5031236261129379 l0.0,-3.776978850364685 0.0,-1.8757112324237823 l0.0,0.030745361000299454 0.0,-3.3663418889045715 l0.0,-1.5526342391967773 0.0,0.5199410393834114 l0.0,-3.4695598483085632 0.0,-1.4860641956329346 l0.0,-0.22909387946128845 0.0,1.1536328494548798 l0.0,-3.085518181324005 0.0,-1.404762864112854 l0.0,0.21591085940599442 0.0,-3.5626885294914246 l0.0,-0.9037430584430695 0.0,0.6173177435994148 l0.0,-3.274570405483246 0.0,-1.4967262744903564 l0.0,-0.8877149969339371 0.0,0.5765011161565781 l0.0,-2.7594158053398132 0.0,-2.066539227962494 l0.0,-1.1353513598442078 0.0,0.5253863334655762 l0.0,-3.2583600282669067 0.0,-1.6905422508716583 l0.0,0.2666759118437767 0.0,-3.3314448595046997 l0.0,-0.7472623884677887 0.0,0.613752007484436 l0.0,-3.318401277065277 0.0,-1.4369440078735352 l0.0,-0.9894970059394836 0.0,0.431104376912117 l0.0,-3.1297019124031067 0.0,-1.281420886516571 l0.0,0.39144303649663925 0.0,-3.2582733035087585 l0.0,-0.9540633857250214 0.0,0.45608289539813995 l0.0,-3.192621171474457 0.0,-1.7054900527000427 l0.0,-1.4472772181034088 0.0,0.5153248459100723 l0.0,-3.044666051864624 0.0,-1.3354678452014923 l0.0,0.49517635256052017 0.0,-3.4383776783943176 l0.0,-1.170838251709938 0.0,0.42399413883686066 l0.0,-3.4891775250434875 0.0,-1.4772191643714905 l0.0,-0.8110777288675308 0.0,0.4419540613889694 l0.0,-3.321245312690735 0.0,-1.3702529668807983 l0.0,0.5721671506762505 0.0,-3.1434524059295654 l0.0,-1.3660293817520142 0.0,0.35259678959846497 l0.0,-3.327997624874115 0.0,-1.3995955884456635 l0.0,0.30608098953962326 0.0,-3.372790217399597 l0.0,-1.3362684845924377 0.0,0.3625161945819855 l0.0,-3.777959942817688 0.0,-1.7212049663066864 l0.0,-1.238749697804451 " fill="none" stroke="black" stroke-width="1" /></svg>