<?xml version="1.0" encoding="utf-8" ?>
<svg baseProfile="full" height="257.410753313452" version="1.1" width="129.43540482781827" xmlns="http://www.w3.org/2000/svg" xmlns:ev="http://www.w3.org/2001/xml-events" xmlns:xlink="http://www.w3.org/1999/xlink"><defs /><rect fill="white" height="257.410753313452" width="129.43540482781827" x="0" y="0" /><path d="M45.02200359478593,48.817953169345856 m4.1354018449783325,6.101059317588806 l6.113978028297424,14.606250524520874 4.815379977226257,18.670201301574707 l5.223075747489929,12.341985702514648 2.387283593416214,8.225762844085693 l2.657380998134613,6.4515602588653564 2.750067114830017,-7.730355858802795 l2.4843579530715942,-16.846349239349365 4.6694329380989075,-18.070480823516846 l1.9634158909320831,-17.14822769165039 1.4299644529819489,-6.324810981750488 l-0.7968048006296158,-0.8726367354393005 -5.02393901348114,-0.3976808115839958 l-12.99972653388977,1.102292239665985 -12.178610563278198,-0.03369497135281563 l-4.380221962928772,-0.36627132445573807 m15.455678701400757,-2.0410969853401184 l-3.857210874557495,-11.929622888565063 -3.7922686338424683,-5.5023229122161865 l-4.866925477981567,-3.232872784137726 -6.011507511138916,-0.9502603858709335 l-5.941303372383118,-0.23665228858590126 -6.255677342414856,2.0024779438972473 l-3.934164047241211,3.409051299095154 -2.012610137462616,3.448737859725952 l-1.7391690611839294,5.938739776611328 -0.5130516737699509,8.705673813819885 l0.5980785936117172,4.665277302265167 1.7359727621078491,4.801227450370789 l2.9165390133857727,5.241833329200745 2.313928008079529,2.966143488883972 l3.5464781522750854,3.7457698583602905 3.821008801460266,3.400791585445404 l3.748982548713684,2.438778877258301 6.783552765846252,0.39873506873846054 l4.055368006229401,-1.4889468252658844 2.7093395590782166,-2.7150851488113403 l0.9823267161846161,-3.5112234950065613 -0.8200355619192123,-4.240173399448395 l-2.5706711411476135,-3.0762282013893127 -5.538027286529541,-3.395085334777832 l-8.248339891433716,-2.9863369464874268 -8.108436465263367,-1.6339780390262604 l-9.687633514404297,0.7666172832250595 -2.3640605807304382,2.464086264371872 l-0.058822277933359146,4.039908349514008 2.0552341639995575,3.9983201026916504 l3.94633948802948,3.9037245512008667 4.577716588973999,2.812575101852417 l5.350054502487183,2.0588943362236023 6.3408589363098145,-0.7863576710224152 l3.0074548721313477,-2.4237585067749023 1.9527450203895569,-3.6915379762649536 l0.304948166012764,-4.302755892276764 -1.5714122354984283,-3.520410656929016 l-3.702138364315033,-3.286226987838745 -4.775875508785248,-1.584492027759552 l-7.724136114120483,0.9560172259807587 -5.086079835891724,3.4922826290130615 l-1.2844806909561157,3.5464608669281006 0.7914993166923523,4.220727384090424 l3.2232841849327087,4.050220847129822 3.589908480644226,1.6583609580993652 l8.262969255447388,-0.67498579621315 3.2008516788482666,-1.8546509742736816 l1.6008149087429047,-2.6002180576324463 0.2928564324975014,-3.442537784576416 l-1.447836458683014,-3.269459307193756 -3.3343401551246643,-2.7460289001464844 l-3.882259726524353,-1.6517111659049988 -5.224446058273315,-0.4598444327712059 l-2.5221815705299377,2.0176608860492706 -0.25992952287197113,3.9259636402130127 l2.319975346326828,4.508584141731262 4.031925797462463,4.245986640453339 l4.791041314601898,2.7756553888320923 4.164431095123291,0.4616601765155792 l3.0771756172180176,-1.239330768585205 2.4732527136802673,-2.968904674053192 l0.5693946778774261,-3.008968234062195 -0.9643291682004929,-3.185480237007141 l-3.1727764010429382,-2.470823973417282 -4.2979127168655396,-0.6273065507411957 l-2.666407823562622,2.247825264930725 -2.54783034324646,5.3697532415390015 l-1.231873780488968,9.02957558631897 1.2319951504468918,4.878188669681549 l3.0835410952568054,2.9124704003334045 3.546150028705597,0.7277335971593857 l3.2037225365638733,-0.6468754261732101 2.4857914447784424,-1.8332093954086304 l1.4725682139396667,-2.99988329410553 -0.007382752373814583,-2.6505833864212036 l-2.1549804508686066,-1.617531180381775 -4.68714565038681,0.3527180105447769 l-5.9774333238601685,3.271365761756897 -5.736541152000427,4.258641600608826 l-1.487673968076706,2.6111450791358948 0.7618343085050583,1.2673738598823547 l3.1346774101257324,0.8159536868333817 3.2486575841903687,0.17747512087225914 l4.283780455589294,0.8450926095247269 2.258225679397583,0.11337952688336372 l1.081264615058899,-0.18373927101492882 -0.7804665714502335,1.8727467954158783 l-7.55207359790802,10.235942602157593 -1.2727771699428558,3.8613471388816833 l0.6571037322282791,2.5615742802619934 3.1217142939567566,3.065074384212494 l3.6366358399391174,1.5423886477947235 7.26936399936676,-0.8728469908237457 l5.317412614822388,-0.7090700417757034 4.3546828627586365,0.1292986422777176 l2.0840317010879517,-0.11972147971391678 1.5960244834423065,-0.42138461023569107 l1.2112244218587875,-0.5409843474626541 1.3429132103919983,0.1338023692369461 l1.2205394357442856,3.5146182775497437 2.864750623703003,3.5454735159873962 l4.469722509384155,4.304472208023071 3.237077295780182,2.391156256198883 l4.517301321029663,2.8651973605155945 3.4146907925605774,1.9801512360572815 l1.875033676624298,0.7105427235364914 1.2244919687509537,0.1911628246307373 l1.3180695474147797,0.5566732585430145 1.5904609858989716,2.903042435646057 l-0.9305961430072784,7.91706383228302 -6.370068192481995,16.577370166778564 l-2.5114887952804565,15.32862901687622 -1.117248460650444,12.437140941619873 l0.49873456358909607,15.147830247879028 2.4041442573070526,16.239521503448486 l3.3556875586509705,9.125169515609741 4.773600101470947,5.455138683319092 l1.526949405670166,1.6579893231391907 1.8347035348415375,0.6532760709524155 l2.3644083738327026,-1.4290748536586761 2.0286552608013153,-5.200095176696777 l0.8904580771923065,-6.653475761413574 -1.9619160890579224,-16.43484354019165 l-6.035666465759277,-14.294846057891846 -10.741896629333496,-13.503166437149048 l-7.214158773422241,-13.269362449645996 -3.906993865966797,-10.10852336883545 l-1.7867235839366913,-8.866024017333984 -0.16705524176359177,-9.079687595367432 l2.198166400194168,-7.997545003890991 " fill="none" stroke="black" stroke-width="1" /></svg>