<?xml version="1.0" encoding="utf-8" ?>
<svg baseProfile="full" height="383.3283694833517" version="1.1" width="1347.2395861148834" xmlns="http://www.w3.org/2000/svg" xmlns:ev="http://www.w3.org/2001/xml-events" xmlns:xlink="http://www.w3.org/1999/xlink"><defs /><rect fill="white" height="383.3283694833517" width="1347.2395861148834" x="0" y="0" /><path d="M25,28.777959942817688 m0.0,-3.777959942817688 l10.214484930038452,5.177204608917236 10.214484930038452,5.177204608917236 l10.214484930038452,5.177204608917236 10.214484930038452,5.177204608917236 l10.214484930038452,5.177204608917236 10.214484930038452,5.177204608917236 l10.214484930038452,5.177204608917236 0.0,-3.777959942817688 l10.214484930038452,5.177204608917236 0.0,-3.777959942817688 l10.214484930038452,5.177204608917236 0.0,-3.777959942817688 l10.214484930038452,5.177204608917236 0.0,-3.777959942817688 l10.214484930038452,5.177204608917236 0.0,-3.777959942817688 l10.214484930038452,5.177204608917236 10.214484930038452,-1.4600922167301178 l10.214484930038452,5.177204608917236 0.0,-3.777959942817688 l10.214484930038452,5.177204608917236 0.0,-3.777959942817688 l10.214484930038452,5.177204608917236 10.214484930038452,5.177204608917236 l10.214484930038452,5.177204608917236 0.0,-3.777959942817688 l10.214484930038452,5.177204608917236 0.0,-3.777959942817688 l10.214484930038452,5.177204608917236 0.0,-3.777959942817688 l10.214484930038452,5.177204608917236 0.0,-3.777959942817688 l10.214484930038452,5.177204608917236 0.0,-3.777959942817688 l10.214484930038452,5.177204608917236 0.0,-3.777959942817688 l10.214484930038452,5.177204608917236 10.214484930038452,-0.9675701707601547 l10.214484930038452,5.177204608917236 0.0,-3.777959942817688 l10.214484930038452,5.177204608917236 0.0,-3.777959942817688 l10.214484930038452,5.177204608917236 0.0,-3.777959942817688 l10.214484930038452,5.177204608917236 10.214484930038452,-1.2221874296665192 l10.214484930038452,5.177204608917236 0.0,-3.777959942817688 l10.214484930038452,5.177204608917236 0.0,-3.777959942817688 l10.214484930038452,5.177204608917236 10.214484930038452,-1.5106259286403656 l10.214484930038452,5.177204608917236 0.0,-3.777959942817688 l10.214484930038452,5.177204608917236 0.0,-3.777959942817688 l10.214484930038452,5.177204608917236 10.214484930038452,-1.5317319333553314 l10.214484930038452,5.177204608917236 0.0,-3.777959942817688 l10.214484930038452,5.177204608917236 0.0,-3.777959942817688 l10.214484930038452,5.177204608917236 10.214484930038452,-1.324894279241562 l10.214484930038452,5.177204608917236 0.0,-3.777959942817688 l10.214484930038452,5.177204608917236 0.0,-3.777959942817688 l10.214484930038452,5.177204608917236 10.214484930038452,-1.3450664281845093 l10.214484930038452,5.177204608917236 0.0,-3.777959942817688 l10.214484930038452,5.177204608917236 0.0,-3.777959942817688 l10.214484930038452,5.177204608917236 0.0,-3.777959942817688 l10.214484930038452,5.177204608917236 0.0,-3.777959942817688 l10.214484930038452,5.177204608917236 0.0,-3.777959942817688 l10.214484930038452,5.177204608917236 10.214484930038452,5.177204608917236 l10.214484930038452,5.177204608917236 0.0,-3.777959942817688 l10.214484930038452,5.177204608917236 0.0,-3.777959942817688 l10.214484930038452,5.177204608917236 0.0,-3.777959942817688 l10.214484930038452,5.177204608917236 0.0,-3.777959942817688 l10.214484930038452,5.177204608917236 0.0,-3.777959942817688 l10.214484930038452,5.177204608917236 0.0,-3.777959942817688 l10.214484930038452,5.177204608917236 0.0,-3.777959942817688 l10.214484930038452,5.177204608917236 0.0,-3.777959942817688 l10.214484930038452,5.177204608917236 0.0,-3.777959942817688 l10.214484930038452,5.177204608917236 0.0,-3.777959942817688 l10.214484930038452,5.177204608917236 10.214484930038452,5.177204608917236 l10.214484930038452,5.177204608917236 0.0,-3.777959942817688 l10.214484930038452,5.177204608917236 0.0,-3.777959942817688 l10.214484930038452,5.177204608917236 0.0,-3.777959942817688 l10.214484930038452,5.177204608917236 0.0,-3.777959942817688 l10.214484930038452,5.177204608917236 0.0,-3.777959942817688 l10.214484930038452,5.177204608917236 0.0,-3.777959942817688 l10.214484930038452,5.177204608917236 0.0,-3.777959942817688 l10.214484930038452,5.177204608917236 0.0,-3.777959942817688 l10.214484930038452,5.177204608917236 0.0,-3.777959942817688 l10.214484930038452,5.177204608917236 0.0,-3.777959942817688 l10.214484930038452,5.177204608917236 0.0,-3.777959942817688 l10.214484930038452,5.177204608917236 10.214484930038452,5.177204608917236 l10.214484930038452,5.177204608917236 0.0,-3.777959942817688 l10.214484930038452,5.177204608917236 0.0,-3.777959942817688 l10.214484930038452,5.177204608917236 10.214484930038452,-1.3836947083473206 l10.214484930038452,5.177204608917236 0.0,-3.777959942817688 l10.214484930038452,5.177204608917236 10.214484930038452,5.177204608917236 l10.214484930038452,5.177204608917236 10.214484930038452,5.177204608917236 l10.214484930038452,5.177204608917236 10.214484930038452,5.177204608917236 l10.214484930038452,5.177204608917236 10.214484930038452,5.177204608917236 l10.214484930038452,5.177204608917236 10.214484930038452,5.177204608917236 l0.0,-3.777959942817688 10.214484930038452,5.177204608917236 l0.0,-3.777959942817688 10.214484930038452,5.177204608917236 l0.0,-3.777959942817688 10.214484930038452,5.177204608917236 l0.0,-3.777959942817688 10.214484930038452,5.177204608917236 l0.0,-3.777959942817688 10.214484930038452,5.177204608917236 l0.0,-3.777959942817688 10.214484930038452,5.177204608917236 l0.0,-3.777959942817688 10.214484930038452,5.177204608917236 l0.0,-3.777959942817688 10.214484930038452,5.177204608917236 l0.0,-3.777959942817688 10.214484930038452,5.177204608917236 l0.0,-3.777959942817688 10.214484930038452,5.177204608917236 l10.214484930038452,5.177204608917236 10.214484930038452,5.177204608917236 l0.0,-3.777959942817688 10.214484930038452,5.177204608917236 l0.0,-3.777959942817688 10.214484930038452,5.177204608917236 l0.0,-3.777959942817688 10.214484930038452,5.177204608917236 l0.0,-3.777959942817688 10.214484930038452,5.177204608917236 l0.0,-3.777959942817688 10.214484930038452,5.177204608917236 l0.0,-3.777959942817688 10.214484930038452,5.177204608917236 l0.0,-3.777959942817688 10.214484930038452,5.177204608917236 l10.214484930038452,5.177204608917236 10.214484930038452,5.177204608917236 l0.0,-3.777959942817688 10.214484930038452,5.177204608917236 l0.0,-3.777959942817688 10.214484930038452,5.177204608917236 l10.214484930038452,5.177204608917236 10.214484930038452,5.177204608917236 l10.214484930038452,5.177204608917236 10.214484930038452,5.177204608917236 l10.214484930038452,5.177204608917236 10.214484930038452,5.177204608917236 l10.214484930038452,5.177204608917236 10.214484930038452,5.177204608917236 l10.214484930038452,5.177204608917236 10.214484930038452,5.177204608917236 l10.214484930038452,5.177204608917236 " fill="none" stroke="black" stroke-width="1" /></svg>