<?xml version="1.0" encoding="utf-8" ?>
<svg baseProfile="full" height="313.38307082653046" version="1.1" width="1089.6907752752304" xmlns="http://www.w3.org/2000/svg" xmlns:ev="http://www.w3.org/2001/xml-events" xmlns:xlink="http://www.w3.org/1999/xlink"><defs /><rect fill="white" height="313.38307082653046" width="1089.6907752752304" x="0" y="0" /><path d="M1064.6907752752304,25 m-63.80393981933594,31.03346824645996 l-68.60513687133789,19.827594757080078 m-71.32571220397949,21.463022232055664 m179.0056037902832,-63.668274879455566 m-10.316472053527832,11.462377309799194 m-57.513413429260254,34.26257371902466 m-76.69012069702148,23.074100017547607 m135.2038288116455,-63.525404930114746 m-41.9896936416626,22.919108867645264 m-24.80114221572876,34.32009220123291 m-81.65925979614258,22.90459394454956 m-74.26283836364746,20.73201894760132 m505.63419342041016,-65.62963485717773 m-38.2002067565918,16.7679226398468 l-20.878336429595947,26.54811143875122 -79.85719203948975,20.458056926727295 m-75.99593162536621,19.673266410827637 m-250.55103302001953,-64.93559837341309 m803.2275390625,-48.76419544219971 m-53.44772815704346,-21.37789487838745 m-43.087472915649414,31.111674308776855 m-25.37708044052124,25.445737838745117 m2776.5521240234375,-73.02941799163818 m-38.75273942947388,-27.27201223373413 m-41.07250213623047,25.69206953048706 l-59.312171936035156,32.61000871658325 m-79.13025856018066,22.02397584915161 m-2574.840087890625,-59.31954860687256 m-33.25588941574097,-26.403472423553467 l-1502.4462890625,-55.09654998779297 m-7.590476870536804,-16.812894344329834 l-69.82680797576904,77.50036239624023 -73.54836940765381,-21.91511631011963 l675.4402160644531,-57.326345443725586 m-592.1027374267578,64.85370635986328 l36.61189794540405,-15.037344694137573 -31.604299545288086,22.35694646835327 l-36.17826223373413,34.25973176956177 -29.874267578125,35.32258749008179 m766.4103698730469,-71.30819797515869 m-412.6648712158203,44.679317474365234 m31.89394474029541,-7.581785321235657 l-24.028756618499756,19.983947277069092 -76.10603332519531,32.137417793273926 l-75.61953067779541,22.80101776123047 m-428.736572265625,-60.39001941680908 m196.06287002563477,-37.40819454193115 l19.424642324447632,13.255441188812256 m-110.1413631439209,28.217294216156006 m1009.1680908203125,-59.04900074005127 m-46.769046783447266,-17.197343111038208 m-44.89175796508789,32.02909469604492 m-31.58931016921997,33.05264472961426 m-1184.3534851074219,-65.76471328735352 m40.74915885925293,-9.142441153526306 l-16.731688976287842,26.082382202148438 m-40.909929275512695,-13.89775037765503 m-79.08600330352783,22.41093635559082 m-72.44534492492676,37.70034074783325 m-75.91179370880127,21.135406494140625 m-202.22015380859375,-62.362213134765625 m-285.7958221435547,-48.71950626373291 m143.3808708190918,-43.94559383392334 l-56.72360420227051,35.383567810058594 m-37.463626861572266,38.524768352508545 m2144.17236328125,-68.80667209625244 m-35.3056001663208,-16.66747808456421 m-37.2308087348938,28.212406635284424 m-27.61192798614502,27.48152494430542 m-1559.6073913574219,-65.74363231658936 m-40.907583236694336,-22.5961971282959 m6048.8580322265625,-60.67919731140137 m-22.28667974472046,7.468990683555603 l-62.18637466430664,56.28790855407715 -77.14840888977051,-33.264617919921875 l-3469.9545288085938,-52.80811786651611 m-34.65461015701294,-33.92267465591431 l-64.75772857666016,75.53323745727539 m-75.48881530761719,-20.10549306869507 l1024.5113372802734,-56.84946060180664 m-48.67284297943115,-19.882073402404785 m-41.04683876037598,33.0730414390564 m-90.44194221496582,44.35712814331055 m-90.07576942443848,42.253479957580566 m-89.39251899719238,-35.99095821380615 m1424.9505615234375,-60.213961601257324 m-35.53605318069458,-14.184110164642334 m-39.15086269378662,32.01580762863159 l-88.60980033874512,43.52046489715576 m-88.54918479919434,-36.336774826049805 m2165.8541870117188,-60.57425022125244 " fill="none" stroke="black" stroke-width="1" /></svg>