<?xml version="1.0" encoding="utf-8" ?>
<svg baseProfile="full" height="139.24063224345446" version="1.1" width="91.02957528084517" xmlns="http://www.w3.org/2000/svg" xmlns:ev="http://www.w3.org/2001/xml-events" xmlns:xlink="http://www.w3.org/1999/xlink"><defs /><rect fill="white" height="139.24063224345446" width="91.02957528084517" x="0" y="0" /><path d="M27.283270806074142,55.12964267283678 m2.603519558906555,8.127952814102173 l5.4585349559783936,11.017799377441406 6.287767291069031,19.016441106796265 l6.432958245277405,15.09412169456482 1.2627284228801727,5.854674577713013 l2.0288877189159393,-7.344644069671631 2.282300889492035,-18.760815858840942 l4.667556285858154,-20.490386486053467 4.549492001533508,-13.148536682128906 l-0.9743580222129822,-0.413329042494297 -14.140280485153198,0.3084820508956909 l-13.227438926696777,-0.4278063401579857 -3.7521833181381226,-0.763976126909256 l-1.5411192178726196,-1.0973809659481049 -2.0046600699424744,-3.765815496444702 l-1.6132454574108124,-7.218964099884033 -0.6037306785583496,-5.282847285270691 l0.6451417505741119,-3.021741509437561 1.3209690153598785,-1.8870776891708374 l1.6703623533248901,-1.1073490977287292 1.6976894438266754,-0.44823966920375824 l1.5900248289108276,0.5411850288510323 1.7593137919902802,2.6880818605422974 l1.3407935202121735,5.053452253341675 2.5334644317626953,-7.025489807128906 l2.131894528865814,-2.6181453466415405 1.9255313277244568,-1.52480810880661 l1.8462416529655457,-0.9395775198936462 1.9564971327781677,-0.5449022352695465 l1.6315922141075134,0.20918041467666626 0.8330724388360977,1.076759696006775 l0.4393409565091133,2.512354850769043 -0.5191225558519363,4.0873828530311584 l3.3400869369506836,-3.9403417706489563 3.3222413063049316,-1.4693209528923035 l2.7618616819381714,-0.4193088412284851 1.7421279847621918,0.2782086655497551 l0.9842289984226227,0.7044795155525208 0.013831928372383118,2.2982442378997803 l-2.3467135429382324,2.877301573753357 3.8911446928977966,-1.9697968661785126 l1.9848951697349548,-0.2056172490119934 1.1617261916399002,0.6154600530862808 l0.4302728921175003,1.7359428107738495 -1.027921736240387,2.8468504548072815 l-4.3589407205581665,5.1436978578567505 3.9521661400794983,-1.5997719764709473 l1.8469853699207306,0.304758045822382 0.528775155544281,1.351119577884674 l-1.000019833445549,2.246672213077545 -5.859582424163818,5.313359498977661 l-5.019655227661133,1.789022833108902 -3.270166516304016,-0.3548228368163109 m-12.450428009033203,12.933251857757568 l8.95664095878601,-1.7815062403678894 6.392588019371033,0.7706797122955322 m-12.873010635375977,10.803139209747314 l9.349888563156128,0.02974778413772583 2.3977726697921753,0.31745415180921555 m-7.488661408424377,9.196203351020813 l4.736661612987518,-1.1390473693609238 " fill="none" stroke="black" stroke-width="1" /></svg>